<?xml version="1.0" encoding="utf-8"?>
<!-- Generator: Adobe Illustrator 25.0.0, SVG Export Plug-In . SVG Version: 6.00 Build 0)  -->
<svg version="1.1" xmlns="http://www.w3.org/2000/svg" xmlns:xlink="http://www.w3.org/1999/xlink" x="0px" y="0px"
	 viewBox="0 0 1000 1000" style="enable-background:new 0 0 1000 1000;" xml:space="preserve">
<style type="text/css">
	.st0{fill:#005458;}
</style>
<g id="Your_design">
</g>
<g id="Guides">
	<path class="st0" d="M648.84,533.63c22.46-30.57,35.76-68.27,35.76-109.03C684.6,322.81,601.79,240,500,240
		s-184.6,82.81-184.6,184.6c0,40.81,13.33,78.54,35.84,109.14C276.02,583.35,229.17,668.27,229.17,760h84.3
		c0-72.08,42-138.07,107.13-168.77c11.78,5.63,24.25,10.01,37.24,13.06V760h84.3V604.29c12.97-3.04,25.42-7.41,37.18-13.04
		c65.38,30.72,107.19,95.91,107.19,168.75h84.31C770.83,667.31,724.26,583.05,648.84,533.63z M399.71,424.6
		c0-55.3,44.99-100.29,100.29-100.29S600.29,369.3,600.29,424.6S555.3,524.89,500,524.89S399.71,479.91,399.71,424.6z"/>
</g>
</svg>
